HIERARCHY
ROOT Hips
{
	OFFSET	0.000000	0.000000	0.000000
	CHANNELS 6 Xposition Yposition Zposition Zrotation Xrotation Yrotation
	JOINT LeftUpLeg
	{
		OFFSET	12.830505	-7.049846	-1.643436
		CHANNELS 3 Zrotation Xrotation Yrotation
		JOINT LeftLeg
		{
			OFFSET	0.620834	-39.957500	-1.919341
			CHANNELS 3 Zrotation Xrotation Yrotation
			JOINT LeftFoot
			{
				OFFSET	-0.413890	-44.704761	-3.870325
				CHANNELS 3 Zrotation Xrotation Yrotation
				JOINT LeftFootHeel
				{
					OFFSET	0.717369	-8.904096	-5.182565
					CHANNELS 3 Zrotation Xrotation Yrotation
					End Site
					{
						OFFSET	0.332974	0.000000	18.777164
					}
				}
			}
		}
	}
	JOINT RightUpLeg
	{
		OFFSET	-12.830505	-7.049846	-1.643436
		CHANNELS 3 Zrotation Xrotation Yrotation
		JOINT RightLeg
		{
			OFFSET	-0.620834	-39.957500	-1.919341
			CHANNELS 3 Zrotation Xrotation Yrotation
			JOINT RightFoot
			{
				OFFSET	0.413890	-44.704761	-3.870325
				CHANNELS 3 Zrotation Xrotation Yrotation
				JOINT RightFootHeel
				{
					OFFSET	-0.717369	-8.904096	-5.182565
					CHANNELS 3 Zrotation Xrotation Yrotation
					End Site
					{
						OFFSET	-0.332974	0.000000	18.777164
					}
				}
			}
		}
	}
	JOINT Spine
	{
		OFFSET	0.000000	12.498170	1.820647
		CHANNELS 3 Zrotation Xrotation Yrotation
		JOINT Spine1
		{
			OFFSET	0.000000	7.620000	0.000000
			CHANNELS 3 Zrotation Xrotation Yrotation
			JOINT LeftShoulder
			{
				OFFSET	9.167800	29.136339	-5.551221
				CHANNELS 3 Zrotation Xrotation Yrotation
				JOINT LeftArm
				{
					OFFSET	12.133453	-3.880866	1.461963
					CHANNELS 3 Zrotation Xrotation Yrotation
					JOINT LeftForeArm
					{
						OFFSET	2.507115	-31.664908	-1.069404
						CHANNELS 3 Zrotation Xrotation Yrotation
						JOINT LeftHand
						{
							OFFSET	4.116172	-24.512624	5.009439
							CHANNELS 3 Zrotation Xrotation Yrotation
							End Site
							{
								OFFSET	-0.213136	-10.931856	2.182134
							}
						}
					}
				}
			}
			JOINT RightShoulder
			{
				OFFSET	-9.167800	29.136339	-5.551221
				CHANNELS 3 Zrotation Xrotation Yrotation
				JOINT RightArm
				{
					OFFSET	-12.133453	-3.880866	1.461963
					CHANNELS 3 Zrotation Xrotation Yrotation
					JOINT RightForeArm
					{
						OFFSET	-2.507115	-31.664908	-1.069404
						CHANNELS 3 Zrotation Xrotation Yrotation
						JOINT RightHand
						{
							OFFSET	-4.116172	-24.512624	5.009439
							CHANNELS 3 Zrotation Xrotation Yrotation
							End Site
							{
								OFFSET	0.213136	-10.931856	2.182134
							}
						}
					}
				}
			}
			JOINT Neck
			{
				OFFSET	0.000000	32.926272	-3.635654
				CHANNELS 3 Zrotation Xrotation Yrotation
				JOINT Head
				{
					OFFSET	0.000000	12.481178	4.646143
					CHANNELS 3 Zrotation Xrotation Yrotation
					End Site
					{
						OFFSET	0.000000	17.715204	-2.222063
					}
				}
			}
		}
	}
}
MOTION
Frames:    15
Frame Time: 0.016667
8.051187	61.048065	232.743503	-179.616379	-154.305450	-6.655499	-56.343655	-128.133606	-57.171753	-29.229252	112.068596	39.653206	-21.941532	-18.108679	-2.588850	0.	0.	0.	22.599646	-117.351395	28.828863	-22.049532	100.132408	38.541912	-0.978019	-12.205675	1.853137	0.	0.	0.	-4.695287	-7.262502	-12.944067	-5.117874	9.466341	14.425184	6.522761	-5.530587	-7.467889	21.854542	-7.516927	17.094036	-56.764202	-60.506729	-65.448555	47.452358	-24.496460	-20.664085	-6.288939	-3.619128	-8.691691	-11.628150	-18.156958	10.959825	86.076538	-39.446918	74.965439	25.967241	23.210060	10.487257	3.063725	-3.491031	-1.757277	-0.822221	-10.526390	-5.585987	
8.148766	61.169308	232.877681	-179.614685	-155.618988	-6.703750	-57.675007	-127.361969	-58.771778	-29.418688	112.189201	40.078609	-21.929985	-18.045860	-2.619334	0.	0.	0.	23.083853	-116.103424	29.426491	-21.144701	100.101120	37.516502	-0.913641	-12.206709	1.846383	0.	0.	0.	-4.557846	-6.645425	-12.669385	-4.929792	8.961924	13.698387	6.213265	-5.225872	-7.419015	22.319315	-7.615250	17.492065	-55.389194	-60.122551	-63.940086	45.659294	-22.988457	-21.394638	-6.249537	-3.437306	-8.663161	-12.442612	-18.273811	8.809764	88.620171	-39.970936	76.004211	31.204166	22.662390	5.417922	2.998603	-3.199826	-1.627825	-0.150370	-10.005836	-6.360273	
8.404249	61.177796	233.040714	-179.623535	-156.857117	-6.890869	-58.644550	-126.538284	-59.948570	-29.930248	112.548248	41.310417	-21.760792	-17.869055	-2.787322	0.	0.	0.	22.613976	-114.922043	29.024076	-19.642014	100.199966	35.744324	-0.844448	-12.199814	1.749079	0.	0.	0.	-4.394640	-6.020575	-12.322344	-4.734417	8.465178	13.094996	5.913530	-4.989844	-7.403028	22.695169	-7.725632	17.935913	-53.929836	-59.721828	-62.457253	44.155575	-21.921926	-21.763731	-6.200720	-3.358124	-8.612299	-13.205917	-18.345448	6.522419	90.854744	-40.798149	77.237976	35.274578	20.816830	3.913267	2.822864	-3.019785	-1.557500	0.525360	-9.426539	-7.151413	
8.468228	61.207290	233.040714	-179.686035	-156.857117	-6.890869	-58.644550	-126.538284	-59.948570	-29.930248	112.548248	41.310417	-21.760792	-17.869055	-2.787322	0.	0.	0.	22.613976	-114.922043	29.024076	-19.642014	100.199966	35.744324	-0.844448	-12.199814	1.749079	0.	0.	0.	-4.394640	-6.020575	-12.322344	-4.734417	8.465178	13.094996	5.913530	-4.989844	-7.403028	22.911877	-8.280937	18.159142	-53.126141	-59.519287	-61.693611	43.374081	-21.415304	-21.834202	-6.200720	-3.358124	-8.612299	-13.205917	-18.345448	6.522419	90.854744	-40.798149	77.237976	35.274578	20.816830	3.913267	2.822864	-3.019785	-1.557500	0.525360	-9.426539	-7.151413	
8.698883	61.221853	233.242213	-179.743042	-158.992905	-7.212638	-61.054234	-125.431442	-62.671154	-30.714979	112.799789	42.372314	-20.985847	-17.717218	-2.611359	0.	0.	0.	22.659845	-113.022331	29.491894	-19.052908	100.478577	35.065140	-0.842972	-12.187922	1.610420	0.	0.	0.	-4.333560	-4.911237	-11.927472	-4.202802	7.523053	12.255876	5.446246	-4.610665	-7.311089	23.012705	-8.174081	18.735357	-50.278202	-58.941986	-59.293583	40.839371	-19.985394	-21.832115	-6.087650	-3.085738	-8.508639	-14.229131	-18.594505	1.857447	94.169571	-43.093586	78.834076	41.704403	15.934013	2.354305	2.582227	-2.626189	-1.663968	1.569125	-8.307356	-8.549852	
8.759448	61.244444	233.291357	-179.824677	-159.418396	-7.252904	-61.202908	-124.989372	-62.904102	-30.611801	112.849907	42.490261	-20.611179	-17.596828	-2.363114	0.	0.	0.	22.779785	-112.682129	29.705257	-18.774372	100.516945	34.794277	-0.818185	-12.173550	1.589511	0.	0.	0.	-4.297976	-4.764282	-11.855172	-4.126953	7.362312	12.060778	5.354335	-4.525198	-7.253023	23.026516	-8.350740	18.898611	-49.235806	-58.735764	-58.426224	40.001785	-19.581829	-21.755037	-6.065677	-2.983257	-8.456139	-14.347957	-18.678659	0.705979	94.840958	-43.876007	79.228722	42.666672	14.622033	1.873128	2.548039	-2.481224	-1.791151	1.784322	-8.099906	-8.821813	
8.794194	61.297808	233.388910	-179.951294	-160.205811	-7.270524	-61.827763	-124.340096	-63.699398	-30.539337	112.708717	42.487423	-19.734846	-17.109898	-1.533552	0.	0.	0.	23.246397	-112.056808	30.384329	-18.343634	100.546638	34.368580	-0.759752	-12.145781	1.586891	0.	0.	0.	-4.240447	-4.447092	-11.745153	-4.004745	7.066708	11.721569	5.179452	-4.411832	-7.202347	23.029860	-8.788775	19.205084	-46.934555	-58.281471	-56.482281	38.351593	-18.833992	-21.564941	-6.038535	-2.797146	-8.417817	-14.338273	-18.840321	-1.496812	95.996384	-45.698917	80.223579	43.936123	11.991753	0.581773	2.473786	-2.132840	-2.169263	2.203940	-7.822543	-9.293616	
8.831617	61.447712	233.580332	179.865097	-161.314896	-7.167726	-62.347034	-123.537186	-64.423096	-29.755587	112.418648	41.894859	-18.102024	-15.842427	0.329284	0.	0.	0.	24.458597	-111.178337	31.952261	-18.415213	100.504631	34.465912	-0.742149	-12.057112	1.595650	0.	0.	0.	-4.294362	-3.815140	-11.753078	-3.773596	6.513202	11.530252	4.924403	-4.272725	-7.323929	23.061121	-9.595683	19.479826	-43.166565	-57.461182	-53.102818	36.280922	-17.870989	-21.233973	-6.022811	-2.485476	-8.568250	-13.764129	-19.052576	-4.575988	96.964310	-48.883873	82.302391	42.935123	7.466094	0.604178	2.689440	-1.802580	-3.360259	2.640942	-7.351406	-10.045349	
8.874812	61.550748	233.711681	179.747818	-162.007111	-7.082450	-62.868858	-123.163643	-65.065956	-29.096350	111.978172	41.487370	-16.600956	-14.705341	1.570114	0.	0.	0.	25.363388	-110.644913	33.038082	-18.418905	100.464806	34.493366	-0.739060	-11.990183	1.603286	0.	0.	0.	-4.348463	-3.497657	-11.664833	-3.585570	6.226445	11.405816	4.812459	-4.197309	-7.428539	23.002844	-10.174445	19.480370	-40.561016	-56.862530	-50.622639	35.159142	-17.291676	-21.156300	-6.043119	-2.284528	-8.744995	-13.267385	-19.212719	-6.405284	97.381393	-53.428474	85.065979	42.114365	3.863708	0.123905	2.880505	-1.491631	-3.975521	2.583048	-7.142440	-10.466935	
8.862061	61.598395	233.755709	179.716965	-162.355148	-7.040007	-62.894474	-123.020699	-65.199234	-28.479000	111.837029	41.110611	-15.785115	-14.044652	2.166052	0.	0.	0.	25.840488	-110.354149	33.570274	-18.132761	100.432190	34.243904	-0.736285	-11.987405	1.568150	0.	0.	0.	-4.408934	-3.341339	-11.616864	-3.459442	6.084081	11.305393	4.786314	-4.171031	-7.427334	22.944374	-10.450032	19.431278	-39.262115	-56.540787	-49.337742	34.648018	-17.018215	-21.159225	-6.064528	-2.172311	-8.788288	-13.041282	-19.339573	-7.218341	96.886475	-54.577587	85.682343	39.772419	2.068027	0.215359	2.943248	-1.293105	-4.272284	2.570355	-7.032599	-10.631834	
8.842355	61.682203	233.846459	179.701157	-163.035309	-6.954069	-62.504784	-122.949348	-65.055649	-27.053942	111.861427	40.322529	-14.221830	-12.565203	3.245606	0.	0.	0.	26.830429	-109.780144	34.631458	-17.685722	100.376495	33.913956	-0.755401	-11.977099	1.448703	0.	0.	0.	-4.478948	-3.031944	-11.538415	-3.217277	5.778318	11.116164	4.734150	-4.082152	-7.425587	22.867517	-11.024702	19.330059	-36.584438	-55.812485	-46.751595	33.755482	-16.516756	-21.104055	-6.116177	-1.959430	-8.844197	-12.670074	-19.658968	-8.585337	95.092522	-56.917953	86.507828	33.933010	-1.305154	0.088796	3.075262	-0.903380	-4.804793	2.502454	-6.740182	-10.944211	
8.799366	61.782386	233.979591	179.776886	-163.913223	-6.738987	-61.893986	-122.868835	-64.729324	-24.997053	111.868950	39.322880	-11.828744	-10.260185	4.945280	0.	0.	0.	28.586964	-109.078789	36.283577	-16.541967	100.268723	32.870590	-0.774999	-11.969180	1.359174	0.	0.	0.	-4.466705	-2.713401	-11.544066	-2.946192	5.383111	10.953112	4.721465	-3.957450	-7.436366	22.732645	-11.921420	19.149170	-32.392887	-54.616524	-43.033218	32.534142	-15.958920	-20.850801	-6.138617	-1.749782	-8.994267	-12.452609	-20.298399	-9.837811	89.579216	-60.604290	85.820503	22.581821	-5.967737	0.321502	3.257515	-0.293463	-5.527293	2.521786	-6.424551	-11.444901	
8.795241	61.814826	234.077123	179.911118	-164.416519	-6.528069	-62.005161	-122.652702	-65.086861	-24.227520	111.801659	38.847080	-10.854522	-9.598656	5.522419	0.	0.	0.	29.843063	-108.711426	37.429417	-16.093782	100.247299	32.408707	-0.797923	-11.968795	1.362089	0.	0.	0.	-4.331773	-2.849010	-11.636694	-2.939958	5.410741	10.965659	4.662885	-3.593680	-7.542937	22.757078	-12.247190	19.136223	-30.988647	-54.140373	-41.865887	32.185135	-15.845549	-20.707790	-6.151054	-1.700369	-9.120836	-12.448424	-20.861593	-10.160295	82.925438	-62.977692	82.865791	13.637236	-9.328543	1.013198	3.359837	0.080781	-5.994003	2.582663	-6.224139	-11.769844	
8.854803	61.824845	234.174017	-179.955124	-164.865631	-6.338404	-61.779396	-122.669037	-65.125015	-22.671041	111.730530	37.813969	-8.482601	-8.854262	6.527440	0.	0.	0.	30.897289	-108.401695	38.286064	-15.469571	100.264488	31.757782	-0.880473	-11.965013	1.342935	0.	0.	0.	-4.208106	-2.809756	-11.794323	-2.998867	5.532581	11.037769	4.681155	-3.792443	-7.598134	22.865133	-12.975229	19.137907	-28.200478	-53.081596	-39.654594	31.533270	-15.697964	-20.327221	-6.171611	-1.696191	-9.161619	-12.468122	-21.199091	-10.230547	78.433205	-63.947716	80.281387	8.926435	-11.083746	1.466981	3.457976	0.101672	-6.327867	2.600409	-6.013561	-11.838066	
8.961824	61.826264	234.274631	-179.864899	-165.259369	-6.127687	-61.230442	-122.823944	-64.877533	-20.005356	111.665718	35.196899	-4.802326	-9.926085	6.616135	0.	0.	0.	31.840034	-108.175583	39.012333	-14.672175	100.311951	30.877281	-0.988676	-11.963003	1.353726	0.	0.	0.	-4.070556	-3.818543	-12.072807	-3.211032	6.135000	11.272735	4.558547	-3.834840	-7.749931	23.233604	-14.039373	19.181843	-24.215664	-51.220009	-36.575756	30.628181	-15.659561	-19.647604	-6.257141	-1.684535	-9.245136	-12.590859	-22.605753	-10.152170	60.939857	-65.448044	68.340775	-5.636533	-16.182854	2.890821	3.456147	0.531681	-6.629130	3.018364	-5.912590	-12.676872	
